<svg xmlns="http://www.w3.org/2000/svg" xmlns:xlink="http://www.w3.org/1999/xlink" width="100" height="100" viewBox="0 0 100 100">
  <defs>
    <filter id="Path_3" x="0" y="0" width="100" height="100" filterUnits="userSpaceOnUse">
      <feOffset dy="3" input="SourceAlpha"/>
      <feGaussianBlur stdDeviation="3" result="blur"/>
      <feFlood flood-color="#3c1aef" result="color"/>
      <feComposite operator="out" in="SourceGraphic" in2="blur"/>
      <feComposite operator="in" in="color"/>
      <feComposite operator="in" in2="SourceGraphic"/>
    </filter>
  </defs>
  <g id="Group_1" data-name="Group 1" transform="translate(-762 -460)">
    <g data-type="innerShadowGroup">
      <g id="Path_3-2" data-name="Path 3" transform="translate(762 460)" fill="#191515" style="mix-blend-mode: hard-light;isolation: isolate">
        <path d="M 50 99.5 C 43.31732177734375 99.5 36.83480072021484 98.19129180908203 30.73251914978027 95.61025238037109 C 24.8381462097168 93.11714935302734 19.54437255859375 89.54794311523438 14.99821376800537 85.00178527832031 C 10.45205307006836 80.45562744140625 6.882853507995605 75.16184997558594 4.38974666595459 69.26747894287109 C 1.808706641197205 63.16519927978516 0.5 56.68267822265625 0.5 50 C 0.5 43.31732177734375 1.808706641197205 36.83480072021484 4.38974666595459 30.73251914978027 C 6.882853507995605 24.8381462097168 10.45205307006836 19.54437255859375 14.99821376800537 14.99821376800537 C 19.54437255859375 10.45205307006836 24.8381462097168 6.882853507995605 30.73251914978027 4.38974666595459 C 36.83480072021484 1.808706641197205 43.31732177734375 0.5 50 0.5 C 56.68267822265625 0.5 63.16519927978516 1.808706641197205 69.26747894287109 4.38974666595459 C 75.16184997558594 6.882853507995605 80.45562744140625 10.45205307006836 85.00178527832031 14.99821376800537 C 89.54794311523438 19.54437255859375 93.11714935302734 24.8381462097168 95.61025238037109 30.73251914978027 C 98.19129180908203 36.83480072021484 99.5 43.31732177734375 99.5 50 C 99.5 56.68267822265625 98.19129180908203 63.16519927978516 95.61025238037109 69.26747894287109 C 93.11714935302734 75.16184997558594 89.54794311523438 80.45562744140625 85.00178527832031 85.00178527832031 C 80.45562744140625 89.54794311523438 75.16184997558594 93.11714935302734 69.26747894287109 95.61025238037109 C 63.16519927978516 98.19129180908203 56.68267822265625 99.5 50 99.5 Z" stroke="none"/>
        <path d="M 50 1 C 43.38460159301758 1 36.96761322021484 2.29541015625 30.92729187011719 4.850250244140625 C 25.09253692626953 7.318145751953125 19.85215759277344 10.85137176513672 15.35177612304688 15.35177612304688 C 10.85137176513672 19.85215759277344 7.318145751953125 25.09253692626953 4.850250244140625 30.92729187011719 C 2.29541015625 36.96761322021484 1 43.38460159301758 1 50 C 1 56.61539840698242 2.29541015625 63.03238677978516 4.850250244140625 69.07270812988281 C 7.318145751953125 74.907470703125 10.85137176513672 80.14784240722656 15.35177612304688 84.64822387695312 C 19.85215759277344 89.14862823486328 25.09253692626953 92.68185424804688 30.92729187011719 95.14974975585938 C 36.96761322021484 97.70458984375 43.38460159301758 99 50 99 C 56.61539840698242 99 63.03238677978516 97.70458984375 69.07270812988281 95.14974975585938 C 74.907470703125 92.68185424804688 80.14784240722656 89.14862823486328 84.64822387695312 84.64822387695312 C 89.14862823486328 80.14784240722656 92.68185424804688 74.907470703125 95.14974975585938 69.07270812988281 C 97.70458984375 63.03238677978516 99 56.61539840698242 99 50 C 99 43.38460159301758 97.70458984375 36.96761322021484 95.14974975585938 30.92729187011719 C 92.68185424804688 25.09253692626953 89.14862823486328 19.85215759277344 84.64822387695312 15.35177612304688 C 80.14784240722656 10.85137176513672 74.907470703125 7.318145751953125 69.07270812988281 4.850250244140625 C 63.03238677978516 2.29541015625 56.61539840698242 1 50 1 M 50 0 C 77.61424255371094 0 100 22.38575744628906 100 50 C 100 77.61424255371094 77.61424255371094 100 50 100 C 22.38575744628906 100 0 77.61424255371094 0 50 C 0 22.38575744628906 22.38575744628906 0 50 0 Z" stroke="none"/>
      </g>
      <g transform="matrix(1, 0, 0, 1, 762, 460)" filter="url(#Path_3)" style="mix-blend-mode: hard-light;isolation: isolate">
        <g id="Path_3-3" data-name="Path 3" fill="#fff">
          <path d="M 50 99.5 C 43.31732177734375 99.5 36.83480072021484 98.19129180908203 30.73251914978027 95.61025238037109 C 24.8381462097168 93.11714935302734 19.54437255859375 89.54794311523438 14.99821376800537 85.00178527832031 C 10.45205307006836 80.45562744140625 6.882853507995605 75.16184997558594 4.38974666595459 69.26747894287109 C 1.808706641197205 63.16519927978516 0.5 56.68267822265625 0.5 50 C 0.5 43.31732177734375 1.808706641197205 36.83480072021484 4.38974666595459 30.73251914978027 C 6.882853507995605 24.8381462097168 10.45205307006836 19.54437255859375 14.99821376800537 14.99821376800537 C 19.54437255859375 10.45205307006836 24.8381462097168 6.882853507995605 30.73251914978027 4.38974666595459 C 36.83480072021484 1.808706641197205 43.31732177734375 0.5 50 0.5 C 56.68267822265625 0.5 63.16519927978516 1.808706641197205 69.26747894287109 4.38974666595459 C 75.16184997558594 6.882853507995605 80.45562744140625 10.45205307006836 85.00178527832031 14.99821376800537 C 89.54794311523438 19.54437255859375 93.11714935302734 24.8381462097168 95.61025238037109 30.73251914978027 C 98.19129180908203 36.83480072021484 99.5 43.31732177734375 99.5 50 C 99.5 56.68267822265625 98.19129180908203 63.16519927978516 95.61025238037109 69.26747894287109 C 93.11714935302734 75.16184997558594 89.54794311523438 80.45562744140625 85.00178527832031 85.00178527832031 C 80.45562744140625 89.54794311523438 75.16184997558594 93.11714935302734 69.26747894287109 95.61025238037109 C 63.16519927978516 98.19129180908203 56.68267822265625 99.5 50 99.5 Z" stroke="none"/>
          <path d="M 50 1 C 43.38460159301758 1 36.96761322021484 2.29541015625 30.92729187011719 4.850250244140625 C 25.09253692626953 7.318145751953125 19.85215759277344 10.85137176513672 15.35177612304688 15.35177612304688 C 10.85137176513672 19.85215759277344 7.318145751953125 25.09253692626953 4.850250244140625 30.92729187011719 C 2.29541015625 36.96761322021484 1 43.38460159301758 1 50 C 1 56.61539840698242 2.29541015625 63.03238677978516 4.850250244140625 69.07270812988281 C 7.318145751953125 74.907470703125 10.85137176513672 80.14784240722656 15.35177612304688 84.64822387695312 C 19.85215759277344 89.14862823486328 25.09253692626953 92.68185424804688 30.92729187011719 95.14974975585938 C 36.96761322021484 97.70458984375 43.38460159301758 99 50 99 C 56.61539840698242 99 63.03238677978516 97.70458984375 69.07270812988281 95.14974975585938 C 74.907470703125 92.68185424804688 80.14784240722656 89.14862823486328 84.64822387695312 84.64822387695312 C 89.14862823486328 80.14784240722656 92.68185424804688 74.907470703125 95.14974975585938 69.07270812988281 C 97.70458984375 63.03238677978516 99 56.61539840698242 99 50 C 99 43.38460159301758 97.70458984375 36.96761322021484 95.14974975585938 30.92729187011719 C 92.68185424804688 25.09253692626953 89.14862823486328 19.85215759277344 84.64822387695312 15.35177612304688 C 80.14784240722656 10.85137176513672 74.907470703125 7.318145751953125 69.07270812988281 4.850250244140625 C 63.03238677978516 2.29541015625 56.61539840698242 1 50 1 M 50 0 C 77.61424255371094 0 100 22.38575744628906 100 50 C 100 77.61424255371094 77.61424255371094 100 50 100 C 22.38575744628906 100 0 77.61424255371094 0 50 C 0 22.38575744628906 22.38575744628906 0 50 0 Z" stroke="none"/>
        </g>
      </g>
      <g id="Path_3-4" data-name="Path 3" transform="translate(762 460)" fill="none" stroke-linejoin="bevel" style="mix-blend-mode: hard-light;isolation: isolate">
        <path d="M 50 99.5 C 43.31732177734375 99.5 36.83480072021484 98.19129180908203 30.73251914978027 95.61025238037109 C 24.8381462097168 93.11714935302734 19.54437255859375 89.54794311523438 14.99821376800537 85.00178527832031 C 10.45205307006836 80.45562744140625 6.882853507995605 75.16184997558594 4.38974666595459 69.26747894287109 C 1.808706641197205 63.16519927978516 0.5 56.68267822265625 0.5 50 C 0.5 43.31732177734375 1.808706641197205 36.83480072021484 4.38974666595459 30.73251914978027 C 6.882853507995605 24.8381462097168 10.45205307006836 19.54437255859375 14.99821376800537 14.99821376800537 C 19.54437255859375 10.45205307006836 24.8381462097168 6.882853507995605 30.73251914978027 4.38974666595459 C 36.83480072021484 1.808706641197205 43.31732177734375 0.5 50 0.5 C 56.68267822265625 0.5 63.16519927978516 1.808706641197205 69.26747894287109 4.38974666595459 C 75.16184997558594 6.882853507995605 80.45562744140625 10.45205307006836 85.00178527832031 14.99821376800537 C 89.54794311523438 19.54437255859375 93.11714935302734 24.8381462097168 95.61025238037109 30.73251914978027 C 98.19129180908203 36.83480072021484 99.5 43.31732177734375 99.5 50 C 99.5 56.68267822265625 98.19129180908203 63.16519927978516 95.61025238037109 69.26747894287109 C 93.11714935302734 75.16184997558594 89.54794311523438 80.45562744140625 85.00178527832031 85.00178527832031 C 80.45562744140625 89.54794311523438 75.16184997558594 93.11714935302734 69.26747894287109 95.61025238037109 C 63.16519927978516 98.19129180908203 56.68267822265625 99.5 50 99.5 Z" stroke="none"/>
        <path d="M 50 1 C 43.38460159301758 1 36.96761322021484 2.29541015625 30.92729187011719 4.850250244140625 C 25.09253692626953 7.318145751953125 19.85215759277344 10.85137176513672 15.35177612304688 15.35177612304688 C 10.85137176513672 19.85215759277344 7.318145751953125 25.09253692626953 4.850250244140625 30.92729187011719 C 2.29541015625 36.96761322021484 1 43.38460159301758 1 50 C 1 56.61539840698242 2.29541015625 63.03238677978516 4.850250244140625 69.07270812988281 C 7.318145751953125 74.907470703125 10.85137176513672 80.14784240722656 15.35177612304688 84.64822387695312 C 19.85215759277344 89.14862823486328 25.09253692626953 92.68185424804688 30.92729187011719 95.14974975585938 C 36.96761322021484 97.70458984375 43.38460159301758 99 50 99 C 56.61539840698242 99 63.03238677978516 97.70458984375 69.07270812988281 95.14974975585938 C 74.907470703125 92.68185424804688 80.14784240722656 89.14862823486328 84.64822387695312 84.64822387695312 C 89.14862823486328 80.14784240722656 92.68185424804688 74.907470703125 95.14974975585938 69.07270812988281 C 97.70458984375 63.03238677978516 99 56.61539840698242 99 50 C 99 43.38460159301758 97.70458984375 36.96761322021484 95.14974975585938 30.92729187011719 C 92.68185424804688 25.09253692626953 89.14862823486328 19.85215759277344 84.64822387695312 15.35177612304688 C 80.14784240722656 10.85137176513672 74.907470703125 7.318145751953125 69.07270812988281 4.850250244140625 C 63.03238677978516 2.29541015625 56.61539840698242 1 50 1 M 50 0 C 77.61424255371094 0 100 22.38575744628906 100 50 C 100 77.61424255371094 77.61424255371094 100 50 100 C 22.38575744628906 100 0 77.61424255371094 0 50 C 0 22.38575744628906 22.38575744628906 0 50 0 Z" stroke="none" fill="#fff"/>
      </g>
    </g>
    <line id="Line_5" data-name="Line 5" y1="79" transform="translate(782.5 470.5)" fill="none" stroke="#fff" stroke-width="3"/>
    <line id="Line_6" data-name="Line 6" x1="30" y1="40" transform="translate(782.5 470.5)" fill="none" stroke="#fff" stroke-width="3"/>
    <line id="Line_7" data-name="Line 7" y1="78" x2="61" transform="translate(782.5 471.5)" fill="none" stroke="#fff" stroke-width="3"/>
    <line id="Line_8" data-name="Line 8" y1="77" x2="2" transform="matrix(1, -0.017, 0.017, 1, 840.828, 472.523)" fill="none" stroke="#fff" stroke-width="3"/>
  </g>
</svg>
